<?xml version="1.0" encoding="UTF-8" standalone="no"?>
<!DOCTYPE svg PUBLIC "-//W3C//DTD SVG 1.1//EN"
 "http://www.w3.org/Graphics/SVG/1.1/DTD/svg11.dtd">
<!-- Generated by graphviz version 2.42.4 (0)
 -->
<!-- Title: G Pages: 1 -->
<svg width="644pt" height="616pt"
 viewBox="0.00 0.00 644.00 616.00" xmlns="http://www.w3.org/2000/svg" xmlns:xlink="http://www.w3.org/1999/xlink">
<g id="graph0" class="graph" transform="scale(1 1) rotate(0) translate(18 598)">
<title>G</title>
<!-- Sources -->
<g id="node1" class="node">
<title>Sources</title>
<path fill="#0b1324" stroke="#7c8fa6" stroke-width="1.6" d="M191,-580C191,-580 12,-580 12,-580 6,-580 0,-574 0,-568 0,-568 0,-548 0,-548 0,-542 6,-536 12,-536 12,-536 191,-536 191,-536 197,-536 203,-542 203,-548 203,-548 203,-568 203,-568 203,-574 197,-580 191,-580"/>
<text text-anchor="middle" x="101.5" y="-561.4" font-family="DejaVu Sans" font-size="12.00" fill="#f4faff">SIGNALS · WORK CHRONICLE</text>
<text text-anchor="middle" x="101.5" y="-548.4" font-family="DejaVu Sans" font-size="12.00" fill="#f4faff">PRIVATE DIALOGUE</text>
</g>
<!-- Orchestrator -->
<g id="node2" class="node">
<title>Orchestrator</title>
<path fill="#0b1324" stroke="#8a7cff" stroke-width="1.6" d="M189.5,-493C189.5,-493 13.5,-493 13.5,-493 7.5,-493 1.5,-487 1.5,-481 1.5,-481 1.5,-461 1.5,-461 1.5,-455 7.5,-449 13.5,-449 13.5,-449 189.5,-449 189.5,-449 195.5,-449 201.5,-455 201.5,-461 201.5,-461 201.5,-481 201.5,-481 201.5,-487 195.5,-493 189.5,-493"/>
<text text-anchor="middle" x="101.5" y="-474.4" font-family="DejaVu Sans" font-size="12.00" fill="#f4faff">EDITORIAL ORCHESTRATOR</text>
<text text-anchor="middle" x="101.5" y="-461.4" font-family="DejaVu Sans" font-size="12.00" fill="#f4faff">rubric · mode · thesis · visual</text>
</g>
<!-- Sources&#45;&gt;Orchestrator -->
<g id="edge1" class="edge">
<title>Sources&#45;&gt;Orchestrator</title>
<path fill="none" stroke="#5bc0eb" stroke-width="1.5" d="M101.5,-535.99C101.5,-525.26 101.5,-512.06 101.5,-500.43"/>
<polygon fill="#5bc0eb" stroke="#5bc0eb" stroke-width="1.5" points="104.02,-500.26 101.5,-493.06 98.98,-500.26 104.02,-500.26"/>
</g>
<!-- Naz -->
<g id="node3" class="node">
<title>Naz</title>
<path fill="#0b1324" stroke="#00e5ff" stroke-width="1.6" d="M110,-390.5C110,-390.5 29,-390.5 29,-390.5 23,-390.5 17,-384.5 17,-378.5 17,-378.5 17,-358.5 17,-358.5 17,-352.5 23,-346.5 29,-346.5 29,-346.5 110,-346.5 110,-346.5 116,-346.5 122,-352.5 122,-358.5 122,-358.5 122,-378.5 122,-378.5 122,-384.5 116,-390.5 110,-390.5"/>
<text text-anchor="middle" x="69.5" y="-371.9" font-family="DejaVu Sans" font-size="12.00" fill="#f4faff">NAZ AI</text>
<text text-anchor="middle" x="69.5" y="-358.9" font-family="DejaVu Sans" font-size="12.00" fill="#f4faff">builder voice</text>
</g>
<!-- Orchestrator&#45;&gt;Naz -->
<g id="edge2" class="edge">
<title>Orchestrator&#45;&gt;Naz</title>
<path fill="none" stroke="#5bc0eb" stroke-width="1.5" d="M94.71,-448.69C90,-433.9 83.68,-414.03 78.54,-397.9"/>
<polygon fill="#5bc0eb" stroke="#5bc0eb" stroke-width="1.5" points="80.86,-396.88 76.28,-390.78 76.06,-398.41 80.86,-396.88"/>
</g>
<!-- Void -->
<g id="node4" class="node">
<title>Void</title>
<path fill="#0b1324" stroke="#d0d0d0" stroke-width="1.6" d="M355,-390.5C355,-390.5 262,-390.5 262,-390.5 256,-390.5 250,-384.5 250,-378.5 250,-378.5 250,-358.5 250,-358.5 250,-352.5 256,-346.5 262,-346.5 262,-346.5 355,-346.5 355,-346.5 361,-346.5 367,-352.5 367,-358.5 367,-358.5 367,-378.5 367,-378.5 367,-384.5 361,-390.5 355,-390.5"/>
<text text-anchor="middle" x="308.5" y="-371.9" font-family="DejaVu Sans" font-size="12.00" fill="#f4faff">VOID</text>
<text text-anchor="middle" x="308.5" y="-358.9" font-family="DejaVu Sans" font-size="12.00" fill="#f4faff">observer voice</text>
</g>
<!-- Orchestrator&#45;&gt;Void -->
<g id="edge3" class="edge">
<title>Orchestrator&#45;&gt;Void</title>
<path fill="none" stroke="#5bc0eb" stroke-width="1.5" d="M144.89,-448.93C178.01,-432.85 223.7,-410.67 258.38,-393.83"/>
<polygon fill="#5bc0eb" stroke="#5bc0eb" stroke-width="1.5" points="259.79,-395.95 265.16,-390.54 257.59,-391.42 259.79,-395.95"/>
</g>
<!-- Naz&#45;&gt;Void -->
<g id="edge6" class="edge">
<title>Naz&#45;&gt;Void</title>
<path fill="none" stroke="#5bc0eb" stroke-width="1.5" d="M129.45,-368.5C163.76,-368.5 206.87,-368.5 242.18,-368.5"/>
<polygon fill="#5bc0eb" stroke="#5bc0eb" stroke-width="1.5" points="129.45,-365.98 122.25,-368.5 129.45,-371.02 129.45,-365.98"/>
<polygon fill="#5bc0eb" stroke="#5bc0eb" stroke-width="1.5" points="242.4,-371.02 249.6,-368.5 242.4,-365.98 242.4,-371.02"/>
<text text-anchor="middle" x="186" y="-373.9" font-family="DejaVu Sans" font-size="9.50" fill="#9fddf7">private_thought.v1</text>
</g>
<!-- Relation -->
<g id="node5" class="node">
<title>Relation</title>
<path fill="#0b1324" stroke="#be8cff" stroke-width="1.6" d="M596,-397C596,-397 453,-397 453,-397 447,-397 441,-391 441,-385 441,-385 441,-352 441,-352 441,-346 447,-340 453,-340 453,-340 596,-340 596,-340 602,-340 608,-346 608,-352 608,-352 608,-385 608,-385 608,-391 602,-397 596,-397"/>
<text text-anchor="middle" x="524.5" y="-378.4" font-family="DejaVu Sans" font-size="12.00" fill="#f4faff">RELATIONSHIP STATE</text>
<text text-anchor="middle" x="524.5" y="-365.4" font-family="DejaVu Sans" font-size="12.00" fill="#f4faff">trust · warmth · friction</text>
<text text-anchor="middle" x="524.5" y="-352.4" font-family="DejaVu Sans" font-size="12.00" fill="#f4faff">curiosity · respect</text>
</g>
<!-- Naz&#45;&gt;Relation -->
<g id="edge4" class="edge">
<title>Naz&#45;&gt;Relation</title>
<path fill="none" stroke="#5bc0eb" stroke-width="1.5" d="M129.31,-388.15C167.63,-399.68 218.68,-413.11 265,-419 323.6,-426.45 388.86,-413.64 439.28,-399.07"/>
<polygon fill="#5bc0eb" stroke="#5bc0eb" stroke-width="1.5" points="129.93,-385.7 122.31,-386.02 128.47,-390.52 129.93,-385.7"/>
<polygon fill="#5bc0eb" stroke="#5bc0eb" stroke-width="1.5" points="440.1,-401.45 446.29,-397 438.67,-396.62 440.1,-401.45"/>
<text text-anchor="middle" x="281.5" y="-420.4" font-family="DejaVu Sans" font-size="9.50" fill="#9fddf7">events</text>
</g>
<!-- Original -->
<g id="node6" class="node">
<title>Original</title>
<path fill="#0b1324" stroke="#2fd6be" stroke-width="1.6" d="M263,-297C263,-297 114,-297 114,-297 108,-297 102,-291 102,-285 102,-285 102,-265 102,-265 102,-259 108,-253 114,-253 114,-253 263,-253 263,-253 269,-253 275,-259 275,-265 275,-265 275,-285 275,-285 275,-291 269,-297 263,-297"/>
<text text-anchor="middle" x="188.5" y="-278.4" font-family="DejaVu Sans" font-size="12.00" fill="#f4faff">ORIGINAL REFLECTIONS</text>
<text text-anchor="middle" x="188.5" y="-265.4" font-family="DejaVu Sans" font-size="12.00" fill="#f4faff">no verbatim copying</text>
</g>
<!-- Naz&#45;&gt;Original -->
<g id="edge7" class="edge">
<title>Naz&#45;&gt;Original</title>
<path fill="none" stroke="#5bc0eb" stroke-width="1.5" d="M97.1,-346.28C114.37,-333 136.74,-315.8 155.02,-301.74"/>
<polygon fill="#5bc0eb" stroke="#5bc0eb" stroke-width="1.5" points="156.88,-303.49 161.05,-297.11 153.81,-299.5 156.88,-303.49"/>
</g>
<!-- Void&#45;&gt;Relation -->
<g id="edge5" class="edge">
<title>Void&#45;&gt;Relation</title>
<path fill="none" stroke="#5bc0eb" stroke-width="1.5" d="M374.51,-368.5C393.09,-368.5 413.64,-368.5 433.41,-368.5"/>
<polygon fill="#5bc0eb" stroke="#5bc0eb" stroke-width="1.5" points="374.44,-365.98 367.24,-368.5 374.44,-371.02 374.44,-365.98"/>
<polygon fill="#5bc0eb" stroke="#5bc0eb" stroke-width="1.5" points="433.45,-371.02 440.65,-368.5 433.45,-365.98 433.45,-371.02"/>
<text text-anchor="middle" x="404" y="-373.9" font-family="DejaVu Sans" font-size="9.50" fill="#9fddf7">events</text>
</g>
<!-- Void&#45;&gt;Original -->
<g id="edge8" class="edge">
<title>Void&#45;&gt;Original</title>
<path fill="none" stroke="#5bc0eb" stroke-width="1.5" d="M280.67,-346.28C263.25,-333 240.7,-315.8 222.26,-301.74"/>
<polygon fill="#5bc0eb" stroke="#5bc0eb" stroke-width="1.5" points="223.43,-299.47 216.18,-297.11 220.38,-303.48 223.43,-299.47"/>
</g>
<!-- Queue -->
<g id="node7" class="node">
<title>Queue</title>
<path fill="#0b1324" stroke="#52b8ff" stroke-width="1.6" d="M270.5,-210C270.5,-210 106.5,-210 106.5,-210 100.5,-210 94.5,-204 94.5,-198 94.5,-198 94.5,-178 94.5,-178 94.5,-172 100.5,-166 106.5,-166 106.5,-166 270.5,-166 270.5,-166 276.5,-166 282.5,-172 282.5,-178 282.5,-178 282.5,-198 282.5,-198 282.5,-204 276.5,-210 270.5,-210"/>
<text text-anchor="middle" x="188.5" y="-191.4" font-family="DejaVu Sans" font-size="12.00" fill="#f4faff">SHARED VK QUEUE</text>
<text text-anchor="middle" x="188.5" y="-178.4" font-family="DejaVu Sans" font-size="12.00" fill="#f4faff">dedupe · backoff · receipts</text>
</g>
<!-- Original&#45;&gt;Queue -->
<g id="edge9" class="edge">
<title>Original&#45;&gt;Queue</title>
<path fill="none" stroke="#5bc0eb" stroke-width="1.5" d="M188.5,-252.99C188.5,-242.26 188.5,-229.06 188.5,-217.43"/>
<polygon fill="#5bc0eb" stroke="#5bc0eb" stroke-width="1.5" points="191.02,-217.26 188.5,-210.06 185.98,-217.26 191.02,-217.26"/>
</g>
<!-- Consumer -->
<g id="node8" class="node">
<title>Consumer</title>
<path fill="#0b1324" stroke="#7c8fa6" stroke-width="1.6" d="M257.5,-123C257.5,-123 119.5,-123 119.5,-123 113.5,-123 107.5,-117 107.5,-111 107.5,-111 107.5,-91 107.5,-91 107.5,-85 113.5,-79 119.5,-79 119.5,-79 257.5,-79 257.5,-79 263.5,-79 269.5,-85 269.5,-91 269.5,-91 269.5,-111 269.5,-111 269.5,-117 263.5,-123 257.5,-123"/>
<text text-anchor="middle" x="188.5" y="-104.4" font-family="DejaVu Sans" font-size="12.00" fill="#f4faff">ISOLATED CONSUMER</text>
<text text-anchor="middle" x="188.5" y="-91.4" font-family="DejaVu Sans" font-size="12.00" fill="#f4faff">allowlisted community</text>
</g>
<!-- Queue&#45;&gt;Consumer -->
<g id="edge10" class="edge">
<title>Queue&#45;&gt;Consumer</title>
<path fill="none" stroke="#5bc0eb" stroke-width="1.5" d="M188.5,-165.99C188.5,-155.26 188.5,-142.06 188.5,-130.43"/>
<polygon fill="#5bc0eb" stroke="#5bc0eb" stroke-width="1.5" points="191.02,-130.26 188.5,-123.06 185.98,-130.26 191.02,-130.26"/>
</g>
<!-- Channels -->
<g id="node9" class="node">
<title>Channels</title>
<path fill="#0b1324" stroke="#7c8fa6" stroke-width="1.6" d="M239.5,-36C239.5,-36 137.5,-36 137.5,-36 131.5,-36 125.5,-30 125.5,-24 125.5,-24 125.5,-12 125.5,-12 125.5,-6 131.5,0 137.5,0 137.5,0 239.5,0 239.5,0 245.5,0 251.5,-6 251.5,-12 251.5,-12 251.5,-24 251.5,-24 251.5,-30 245.5,-36 239.5,-36"/>
<text text-anchor="middle" x="188.5" y="-14.9" font-family="DejaVu Sans" font-size="12.00" fill="#f4faff">TELEGRAM + VK</text>
</g>
<!-- Consumer&#45;&gt;Channels -->
<g id="edge11" class="edge">
<title>Consumer&#45;&gt;Channels</title>
<path fill="none" stroke="#5bc0eb" stroke-width="1.5" d="M188.5,-78.72C188.5,-67.9 188.5,-54.71 188.5,-43.47"/>
<polygon fill="#5bc0eb" stroke="#5bc0eb" stroke-width="1.5" points="191.02,-43.26 188.5,-36.06 185.98,-43.26 191.02,-43.26"/>
</g>
</g>
</svg>
